inDegrees=yes
name=ik_data_2024_11_07_17_57
DataType=double
version=3
OpenSimVersion=4.5.1
endheader
time	pelvis_tilt	pelvis_list	pelvis_rotation	pelvis_tx	pelvis_ty	pelvis_tz	hip_flexion_r	hip_adduction_r	hip_rotation_r	knee_angle_r	knee_angle_r_beta	ankle_angle_r	subtalar_angle_r	mtp_angle_r	hip_flexion_l	hip_adduction_l	hip_rotation_l	knee_angle_l	knee_angle_l_beta	ankle_angle_l	subtalar_angle_l	mtp_angle_l	lumbar_extension	lumbar_bending	lumbar_rotation	arm_flex_r	arm_add_r	arm_rot_r	elbow_flex_r	pro_sup_r	wrist_flex_r	wrist_dev_r	arm_flex_l	arm_add_l	arm_rot_l	elbow_flex_l	pro_sup_l	wrist_flex_l	wrist_dev_l
15.01776	-10.43704438898303	-4.05143233637933	12.61079004605665	0	0.9399999999999999	0	4.041659977402377	-5.762546620303546	18.97727886198021	57.93450897983001	1.011147932224255	-5.004647803907727	0	0	11.32690559923084	-1.699501813863632	-15.03787521854083	0.5216064398658533	0.009103749775264949	-5.004647803907727	0	0	0	0	0	0	-8.485665510738839	0	69.66858788950081	45.54189721963536	0	0	0	-8.485665510738839	0	69.66858788950081	45.54189721963536	0	0
15.07208	-10.21875478163731	-4.066270872776288	12.52245716840252	0	0.9399999999999999	0	3.071952206165807	-5.109301168952086	18.05558893079834	55.20553933387786	0.9635184267154058	-5.004622584415277	0	0	11.11513218732168	-1.778304092350653	-15.12499809447125	0.5179378025846381	0.009039719975646331	-5.004622584415277	0	0	0	0	0	0	-8.489683266717481	0	69.67501425270098	45.5401073640901	0	0	0	-8.489683266717481	0	69.67501425270098	45.5401073640901	0	0
15.08158	-10.10383586534342	-4.005344910736865	12.76994495640885	0	0.9399999999999999	0	1.978915029625132	-4.743286055290955	17.05046029931558	52.67327534753514	0.9193220826240486	-5.004610102881146	0	0	10.99897292123041	-1.701572452259509	-14.89895628802976	0.5225368233453463	0.009119988030288264	-5.004610102881146	0	0	0	0	0	0	-8.491673754359544	0	69.67819519838474	45.53922174117493	0	0	0	-8.491673754359544	0	69.67819519838474	45.53922174117493	0	0
15.13321	-9.910044086715581	-3.860195404361306	13.33684587676228	0	0.9399999999999999	0	0.7678563370444071	-4.392054559630016	15.88256304730284	50.48458857805709	0.8811222922018186	-5.004597068309504	0	0	10.79141976343056	-1.498169076819204	-14.37347096464614	0.5187525103817285	0.009053939309147229	-5.004597068309504	0	0	0	0	0	0	-8.493758905842503	0	69.68152565464794	45.53829575813304	0	0	0	-8.493758905842503	0	69.68152565464794	45.53829575813304	0	0
15.19743	-9.905964098154291	-3.92730740430856	13.0996482814387	0	0.9399999999999999	0	-0.3496089587154411	-3.854619077826067	15.60119279633109	48.16903746759309	0.8407083013260108	-5.004584252773948	0	0	10.7905305066178	-1.612324488077995	-14.5963435617759	0.5298463608846689	0.009247563527147567	-5.004584252773948	0	0	0	0	0	0	-8.495815151257689	0	69.6848084304938	45.5373842275803	0	0	0	-8.495815151257689	0	69.6848084304938	45.5373842275803	0	0
15.25159	-9.885683476332952	-3.820834656359363	13.48966555271537	0	0.9399999999999999	0	-1.553634217007926	-3.358255569161372	14.75295476603917	46.02376905121045	0.8032663041210891	-5.004569853556374	0	0	10.75783925580856	-1.441383549846552	-14.23436218162304	0.5147001316875678	0.008983211958396456	-5.004569853556374	0	0	0	0	0	0	-8.498124853913247	0	69.68849801588991	45.53635952301393	0	0	0	-8.498124853913247	0	69.68849801588991	45.53635952301393	0	0
15.26558	-9.924389290959843	-3.743771536513897	13.80081586649261	0	0.9399999999999999	0	-3.084716595758843	-2.842467452851797	14.06905051182564	43.67872862936841	0.7623376276675887	-5.004555608214696	0	0	10.78800944325291	-1.296728095117604	-13.93577953230828	0.5193128805156622	0.009063719613014212	-5.004555608214696	0	0	0	0	0	0	-8.500417504680618	0	69.69215864776811	45.53534434350719	0	0	0	-8.500417504680618	0	69.69215864776811	45.53534434350719	0	0
15.31917	-10.19281984235096	-3.616464940987048	14.30900089132277	0	0.9399999999999999	0	-4.158121510740346	-2.366984991536694	13.12896347438124	41.39811817025505	0.722533466200641	-5.004542035122346	0	0	11.0280211732444	-1.014014334558654	-13.45514470642359	0.5211966646161115	0.009096597847963772	-5.004542035122346	0	0	0	0	0	0	-8.502610724845303	0	69.69565782124889	45.53437565784707	0	0	0	-8.502610724845303	0	69.69565782124889	45.53437565784707	0	0
15.38096	-10.60199360295291	-3.403566880482953	15.1281862354176	0	0.9399999999999999	0	-5.394796614046357	-2.178734342566649	12.02033081309928	38.82011635749092	0.6775388464455246	-5.004526021074407	0	0	11.37429323951026	-0.5437714756887679	-12.68914621377649	0.512019226891573	0.008936421342773839	-5.004526021074407	0	0	0	0	0	0	-8.505217589307726	0	69.69980938917853	45.53323020146343	0	0	0	-8.505217589307726	0	69.69980938917853	45.53323020146343	0	0
15.44165	-11.02529411251337	-3.367771480312192	15.27401524062315	0	0.9399999999999999	0	-6.27742695733771	-1.812681246151716	11.6258759055086	36.43514196966562	0.6359131908022368	-5.004511438786912	0	0	11.7759030646226	-0.3688022046559301	-12.5492182766672	0.5181477016345172	0.00904338340516353	-5.004511438786912	0	0	0	0	0	0	-8.507596686003257	0	69.70359770920449	45.53218595597605	0	0	0	-8.507596686003257	0	69.70359770920449	45.53218595597605	0	0
15.44483	-11.62222512879772	-3.272044926455635	15.69249096141331	0	0.9399999999999999	0	-7.202730440280284	-1.318106327635172	10.947790242035	33.69425482859485	0.5880756857649778	-5.004497974602454	0	0	12.33420158876637	-0.0209382074918277	-12.16032298394677	0.5193160914105646	0.009063775653702194	-5.004497974602454	0	0	0	0	0	0	-8.509798219424555	0	69.70710276019432	45.53122070376275	0	0	0	-8.509798219424555	0	69.70710276019432	45.53122070376275	0	0
15.49972	-12.23479876977099	-3.225856321592612	15.79295946097122	0	0.9399999999999999	0	-7.847786713646206	-0.8050975937053075	10.62217880004371	31.17584062576719	0.5441210659966468	-5.004481912729524	0	0	12.90294078075197	0.2115335602962669	-12.07181769748351	0.5128481918425843	0.008950889510552621	-5.004481912729524	0	0	0	0	0	0	-8.512421621597618	0	69.71128311325457	45.53006879483859	0	0	0	-8.512421621597618	0	69.71128311325457	45.53006879483859	0	0
15.55786	-12.78299758969605	-3.235143741993585	15.77632323547197	0	0.9399999999999999	0	-8.559444476675218	-0.5397556941456721	10.55135519604677	29.01100746129194	0.5063375995201856	-5.004467070868493	0	0	13.43693870624755	0.3527627956397222	-12.09529180851412	0.5136388596826854	0.008964689267652017	-5.004467070868493	0	0	0	0	0	0	-8.51486612232082	0	69.71517050941482	45.52900165489135	0	0	0	-8.51486612232082	0	69.71517050941482	45.52900165489135	0	0
15.61803	-13.15855104178284	-3.261260202234401	15.65986066170932	0	0.9399999999999999	0	-9.269041747173755	-0.2702400701031791	10.63055512685082	27.39116820861211	0.4780660712078783	-5.004451959358488	0	0	13.79580212969017	0.4065463591033188	-12.20334636138091	0.5163213339969087	0.00901150727653539	-5.004451959358488	0	0	0	0	0	0	-8.517350152333725	0	69.71912585539555	45.52791477880256	0	0	0	-8.517350152333725	0	69.71912585539555	45.52791477880256	0	0
15.62112	-13.63514856510499	-3.45917305274829	14.93343456971941	0	0.9399999999999999	0	-9.793996193718057	0.1031064277990211	11.35520322729545	25.65025168620099	0.4476813458894346	-5.004438572068853	0	0	14.31399276599638	0.1627378158280844	-12.86636909458899	0.5262231689292024	0.009184326898092905	-5.004438572068853	0	0	0	0	0	0	-8.519566504511422	0	69.72264882081178	45.52694982798058	0	0	0	-8.519566504511422	0	69.72264882081178	45.52694982798058	0	0
15.68058	-14.04335473491529	-3.60955180483264	14.3227727030551	0	0.9399999999999999	0	-10.12698095579252	0.2028403146240707	11.99016616936767	24.21250117852638	0.4225878657082927	-5.004423759802356	0	0	14.74506155270132	-0.02056127073819033	-13.41699738290512	0.5121723302089886	0.008939093499758468	-5.004423759802356	0	0	0	0	0	0	-8.522040510918563	0	69.72657217823158	45.52587950393506	0	0	0	-8.522040510918563	0	69.72657217823158	45.52587950393506	0	0
15.73317	-14.40624112831412	-3.603365986198902	14.35385064000456	0	0.9399999999999999	0	-10.59002924137157	0.154843187565967	11.95972602371005	22.43836041219038	0.3916232679418741	-5.004407180909778	0	0	15.0871509719062	0.09128323994151165	-13.39401103655958	0.5110875960714493	0.008920161317549625	-5.004407180909778	0	0	0	0	0	0	-8.524886515172115	0	69.73104839151345	45.52467369705629	0	0	0	-8.524886515172115	0	69.73104839151345	45.52467369705629	0	0
15.79797	-14.8473082542446	-3.582067630100606	14.42679780676198	0	0.9399999999999999	0	-10.64245818845602	0.01053384430415676	11.89394758782679	20.56905553338283	0.3589977430830887	-5.004393426229147	0	0	15.50528943338177	0.2403430522147832	-13.32589273238838	0.515417198895244	0.008995727142128486	-5.004393426229147	0	0	0	0	0	0	-8.527200649263175	0	69.73471340858718	45.52367703485586	0	0	0	-8.527200649263175	0	69.73471340858718	45.52367703485586	0	0
15.8023	-15.17224426137995	-3.524711951262721	14.69105370767386	0	0.9399999999999999	0	-10.38885757629511	-0.1204912406436028	11.59753403458275	19.73064547811264	0.3443647271367963	-5.004386389221655	0	0	15.81345499319376	0.4524715635012048	-13.08419464276481	0.5050744326414359	0.008815211817235378	-5.004386389221655	0	0	0	0	0	0	-8.528382725930056	0	69.73658790036666	45.52316688811727	0	0	0	-8.528382725930056	0	69.73658790036666	45.52316688811727	0	0
